<?xml version="1.0" encoding="UTF-8"?>
<svg width="1400px" height="500px" viewBox="0 0 1400 500" version="1.1" xmlns="http://www.w3.org/2000/svg" xmlns:xlink="http://www.w3.org/1999/xlink">
    <!-- Generator: Sketch 41.2 (35397) - http://www.bohemiancoding.com/sketch -->
    <title>Color</title>
    <desc>Created with Sketch.</desc>
    <defs>
        <linearGradient x1="0.0205873368%" y1="49.9439974%" x2="100.021116%" y2="49.9439974%" id="linearGradient-1">
            <stop stop-color="#1A8EB4" offset="0%"></stop>
            <stop stop-color="#1A8EB4" offset="0.091915%"></stop>
            <stop stop-color="#FFFFFF" offset="100%"></stop>
        </linearGradient>
        <linearGradient x1="-0.0153540198%" y1="49.9730755%" x2="99.9839119%" y2="49.9730755%" id="linearGradient-2">
            <stop stop-color="#FFFFFF" offset="0%"></stop>
            <stop stop-color="#FFFFFF" offset="0.023994%"></stop>
            <stop stop-color="#FFD700" offset="100%"></stop>
        </linearGradient>
    </defs>
    <g id="Page-1" stroke="none" stroke-width="1" fill="none" fill-rule="evenodd">
        <g id="Color">
            <g id="logo" transform="translate(171.000000, 56.000000)">
                <g id="circles" transform="translate(148.000000, 194.500000) scale(1, -1) translate(-148.000000, -194.500000) translate(0.000000, 0.000000)">
                    <path d="M0.137624645,194.231011 C0.137624645,87.1034109 87.2762831,0.258643617 193.281238,0.258643617 L193.281238,0.258643617 L193.281238,46.8067354 C113.13115,46.8067354 46.6660434,112.81 46.6660434,194.231011 L46.6660434,194.231011 C46.6660434,275.654608 113.405212,341.657872 194.796333,341.657872 L194.796333,341.657872 L194.416267,388.205964 C87.3305783,388.205964 0.137624645,301.35861 0.137624645,194.231011" id="path62" fill="url(#linearGradient-1)"></path>
                    <path d="M122.467343,264.504481 L150.925795,238.122832 C162.149393,249.353138 177.662313,256.302892 194.796333,256.302892 L194.796333,256.302892 C229.061789,256.302892 256.845429,228.514222 256.845429,194.231011 L256.845429,194.231011 C256.845429,159.947799 229.061789,132.161715 194.796333,132.161715 L194.796333,132.161715 C177.662313,132.161715 162.149393,139.106297 150.925795,150.341775 L150.925795,150.341775 L118.81405,127.922547 C137.30028,106.747394 164.486673,93.3651729 194.796333,93.3651729 L194.796333,93.3651729 C250.482546,93.3651729 295.625144,138.526935 295.625144,194.231011 L295.625144,194.231011 C295.625144,249.937673 250.482546,295.096848 194.796333,295.096848 L194.796333,295.096848 C166.423202,295.096848 140.793272,283.37512 122.467343,264.504481" id="path84" fill="url(#linearGradient-2)"></path>
                    <path d="M172.121356,194.232304 C172.121356,206.761001 182.274563,216.915349 194.796075,216.915349 C207.320172,216.915349 217.473379,206.761001 217.473379,194.232304 C217.473379,181.701021 207.320172,171.546672 194.796075,171.546672 C182.274563,171.546672 172.121356,181.701021 172.121356,194.232304" id="path96" fill="#800000"></path>
                </g>
                <g id="text" transform="translate(318.531962, 124.148936)">
                    <g id="SIGDOC" opacity="0.993149909" transform="translate(-0.000000, -0.000000)" fill="#594E4A">
                        <path d="M88.3813201,102.678412 C83.9135991,110.127348 71.6273663,117.203838 57.4769975,117.203838 C39.2338033,117.203838 30.4819308,109.568678 30.4819308,99.8850612 C30.4819308,88.5228471 43.8876794,85.3570492 59.524703,83.4948152 C86.7059248,80.1427939 112.025596,73.0663045 112.025596,41.9644096 C112.025596,12.9109721 86.3336147,0.434003989 57.2908425,0.434003989 C30.6680859,0.434003989 10.1910312,8.62783378 0.508383439,32.467016 L20.9880236,43.08175 C26.75883,28.7425479 41.8399739,22.4109521 57.6631526,22.4109521 C73.1166066,22.4109521 87.6367,27.8114309 87.6367,41.9644096 C87.6367,54.2551543 74.792002,59.2857726 57.4769975,61.1454202 C30.8542409,64.3138045 6.28177525,71.3902939 6.28177525,100.629955 C6.28177525,127.448711 32.7157913,138.435892 56.7323774,138.622116 C77.0258625,138.622116 98.0639679,132.84919 107.930185,112.734476 L88.3813201,102.678412 Z" id="path22" transform="translate(56.266990, 69.528060) scale(-1, 1) rotate(180.000000) translate(-56.266990, -69.528060) "></path>
                        <polygon id="path24" points="133.776262 134.153271 158.165158 134.153271 158.165158 3.78912899 133.776262 3.78912899 133.776262 134.153271"></polygon>
                        <path d="M283.233423,102.305965 C274.481551,110.686019 261.450698,115.34419 250.09524,115.34419 C222.169398,115.34419 205.226704,94.1121356 205.226704,67.293379 C205.226704,45.8751011 217.699092,23.714516 250.09524,23.714516 C260.333767,23.714516 269.271795,25.9491968 279.510322,34.1430266 L279.510322,57.2373152 L246.183399,57.2373152 L246.183399,79.2116769 L302.035083,79.2116769 L302.035083,24.2731862 C289.190385,9.5589508 272.99231,0.806450798 250.09524,0.806450798 C201.131293,0.806450798 181.210118,33.0256862 181.210118,67.293379 C181.210118,103.981976 204.107188,137.877222 250.09524,137.877222 C267.593814,137.877222 285.094974,131.17318 298.498137,117.948731 L283.233423,102.305965 Z" id="path28" transform="translate(241.622600, 69.341836) scale(1, -1) translate(-241.622600, -69.341836) "></path>
                        <path d="M350.016803,27.4395013 L376.825715,27.4395013 C406.426952,27.4395013 418.15472,49.0440027 417.59884,70.2734707 C417.040375,90.5718218 405.121282,110.872759 376.825715,110.872759 L350.016803,110.872759 L350.016803,27.4395013 Z M441.985151,70.0872473 C442.543616,37.1231184 422.438872,3.78395612 376.825715,3.78395612 L325.627907,3.78395612 L325.627907,134.153271 L376.825715,134.153271 C421.505511,134.153271 441.4241,102.306483 441.985151,70.0872473 L441.985151,70.0872473 Z" id="path32"></path>
                        <path d="M488.812452,69.7347161 C489.370917,48.3190246 500.915115,25.408373 531.633283,25.408373 C562.348865,25.408373 573.893063,48.5026616 574.265373,69.9209395 C574.635098,91.8978876 562.348865,116.479377 531.633283,116.479377 C500.915115,116.479377 488.253987,91.7116642 488.812452,69.7347161 M598.465529,70.2933863 C598.095804,36.5843637 577.424838,2.87534109 531.633283,2.87534109 C485.833971,2.87534109 464.609711,35.8394701 464.609711,70.1071629 C464.609711,104.374856 486.578592,138.828772 531.633283,138.828772 C576.499234,138.828772 598.840424,104.374856 598.465529,70.2933863" id="path36"></path>
                        <path d="M739.142636,22.2443856 C725.736888,9.02252394 708.424469,2.8771516 689.622809,2.8771516 C641.217327,2.8771516 620.737687,36.211141 620.554117,70.106387 C620.367962,104.187856 642.520412,138.830582 689.622809,138.830582 C707.307538,138.830582 724.064078,132.123953 737.469826,118.902092 L721.085597,103.070516 C712.51988,111.453156 700.978267,115.363847 689.622809,115.363847 C658.160022,115.363847 644.568118,91.8971117 644.754273,70.106387 C644.940428,48.5018856 657.415401,25.9688537 689.622809,25.9688537 C700.978267,25.9688537 713.822965,30.6244388 722.388682,39.1933019 L739.142636,22.2443856 Z" id="path40"></path>
                    </g>
                    <path d="M1.84710672,178.670453 C2.48736248,179.056983 3.27052073,179.398413 4.19660496,179.694752 C5.12268919,179.991092 6.07734195,180.13926 7.06059187,180.13926 C8.22677201,180.13926 9.101394,179.875135 9.68448407,179.346877 C10.2675741,178.818619 10.5591148,178.129318 10.5591148,177.278952 C10.5591148,176.428586 10.2732906,175.726401 9.70163369,175.172374 C9.12997676,174.618348 8.21533939,174.045004 6.95769414,173.452325 C5.12839195,172.57619 3.71070403,171.513249 2.70458783,170.263468 C1.69847163,169.013688 1.19542107,167.538454 1.19542107,165.837722 C1.19542107,164.755438 1.38406503,163.737591 1.76135861,162.784151 C2.13865218,161.83071 2.68171812,161.006125 3.39057272,160.310371 C4.09942731,159.614618 4.96833281,159.067042 5.99731529,158.667627 C7.02629777,158.268213 8.19246042,158.068509 9.49583822,158.068509 C10.6620184,158.068509 11.673836,158.184466 12.5313214,158.416384 C13.3888068,158.648302 14.1148002,158.931753 14.7093234,159.266746 L13.680346,163.866429 C13.2687531,163.634511 12.7028212,163.389713 11.9825334,163.132026 C11.2622457,162.874339 10.4104897,162.745498 9.42723974,162.745498 C8.32965843,162.745498 7.52363424,163.009623 7.009143,163.537881 C6.49465176,164.066138 6.23741,164.665251 6.23741,165.335236 C6.23741,165.747535 6.31172429,166.10829 6.46035509,166.417514 C6.60898589,166.726738 6.83764524,167.023074 7.14633998,167.306529 C7.45503472,167.589984 7.86090506,167.873435 8.36396316,168.156891 C8.86702126,168.440346 9.47296852,168.762449 10.1818231,169.123211 C12.0797241,170.025114 13.4573967,171.107382 14.3148821,172.370046 C15.1723675,173.632711 15.6011037,175.114387 15.6011037,176.815118 C15.6011037,177.94894 15.4181763,178.998997 15.0523158,179.965322 C14.6864554,180.931647 14.1319565,181.775558 13.3888025,182.497081 C12.6456485,183.218603 11.7252946,183.785505 10.6277133,184.197804 C9.53013198,184.610103 8.26107263,184.816249 6.82049716,184.816249 C5.60858446,184.816249 4.46528775,184.668081 3.39057272,184.371742 C2.31585768,184.075402 1.49268405,183.746856 0.921027117,183.386095 L1.84710672,178.670453 Z M23.6271269,176.737813 C23.6271269,177.304724 23.6728588,177.742784 23.7643239,178.052008 C23.9472541,178.799299 24.2730937,179.385528 24.7418524,179.810711 C25.2106111,180.235894 25.742244,180.448482 26.3367672,180.448482 C27.3657497,180.448482 28.148908,179.939559 28.6862655,178.921696 C29.223623,177.903834 29.4922977,176.608978 29.4922977,175.03709 C29.4922977,173.439432 29.235056,172.151018 28.7205647,171.171809 C28.2060735,170.1926 27.4343482,169.703003 26.4053657,169.703003 C25.7879762,169.703003 25.2277609,169.941359 24.7247028,170.41808 C24.2216447,170.8948 23.9015216,171.506796 23.7643239,172.254088 C23.6728588,172.563312 23.6271269,172.936952 23.6271269,173.375019 L23.6271269,176.737813 Z M18.6194372,171.790254 C18.6194372,170.579127 18.6080043,169.464649 18.585138,168.446787 C18.5622717,167.428924 18.5279728,166.469056 18.4822403,165.567153 L22.8382443,165.567153 L23.078339,168.079585 L23.1469375,168.079585 C23.6728619,167.151913 24.3588399,166.436843 25.2048922,165.934354 C26.0509444,165.431865 27.0227466,165.180625 28.1203279,165.180625 C29.034979,165.180625 29.8810186,165.412539 30.658472,165.876375 C31.4359255,166.340211 32.1104705,166.997302 32.6821275,167.847668 C33.2537844,168.698034 33.7053866,169.715881 34.0369476,170.90124 C34.3685086,172.086598 34.5342867,173.40078 34.5342867,174.843826 C34.5342867,176.544557 34.3342097,178.026233 33.9340499,179.288898 C33.53389,180.551562 33.0079735,181.595178 32.3562846,182.419775 C31.7045957,183.244372 30.9614529,183.856369 30.1268337,184.255783 C29.2922146,184.655197 28.4404586,184.854902 27.57154,184.854902 C26.6568889,184.854902 25.8622977,184.655197 25.1877426,184.255783 C24.5131874,183.856369 24.0158533,183.373214 23.6957254,182.806303 L23.6271269,182.806303 L23.6271269,192.044323 L18.6194372,192.044323 L18.6194372,171.790254 Z M46.9849124,172.988491 C46.9849124,172.576192 46.944897,172.138132 46.864865,171.674296 C46.7848331,171.21046 46.6476375,170.785283 46.4532741,170.398753 C46.2589107,170.012223 45.990236,169.69012 45.6472419,169.432433 C45.3042477,169.174746 44.8812279,169.045905 44.3781698,169.045905 C43.897978,169.045905 43.4806747,169.174746 43.1262474,169.432433 C42.7718201,169.69012 42.4802794,170.012223 42.2516167,170.398753 C42.0229539,170.785283 41.8457429,171.21046 41.7199784,171.674296 C41.5942138,172.138132 41.5198996,172.576192 41.4970333,172.988491 L46.9849124,172.988491 Z M41.5313325,176.892424 C41.5541988,177.536641 41.6856779,178.090659 41.9257738,178.554495 C42.1658697,179.018331 42.4859928,179.404855 42.8861527,179.714079 C43.2863125,180.023303 43.7436312,180.248775 44.2581225,180.390503 C44.7726137,180.53223 45.3156796,180.603093 45.8873366,180.603093 C46.6876563,180.603093 47.4307991,180.538673 48.1167875,180.409829 C48.8027758,180.280986 49.4544549,180.100608 50.0718444,179.86869 L50.7578293,183.73397 C49.9575096,184.094732 49.0771711,184.365299 48.1167875,184.545679 C47.1564038,184.72606 46.1503027,184.816249 45.0984539,184.816249 C42.4230995,184.816249 40.3594489,183.972338 38.9074403,182.28449 C37.4554317,180.596643 36.7294383,178.271056 36.7294383,175.307659 C36.7294383,173.993457 36.9009328,172.72437 37.243927,171.500358 C37.5869211,170.276346 38.0899717,169.200521 38.7530937,168.272849 C39.4162158,167.345177 40.2393894,166.597897 41.2226393,166.030986 C42.2058892,165.464076 43.349186,165.180625 44.6525638,165.180625 C45.8873427,165.180625 46.9391757,165.431865 47.8080943,165.934354 C48.6770128,166.436843 49.3972897,167.113261 49.9689466,167.963627 C50.5406036,168.813992 50.9579069,169.799629 51.2208691,170.920566 C51.4838313,172.041503 51.6153104,173.220402 51.6153104,174.457297 C51.6153104,175.024208 51.5981609,175.513805 51.5638615,175.926104 C51.5295621,176.338403 51.4895467,176.660506 51.4438142,176.892424 L41.5313325,176.892424 Z M66.15819,184.043193 C65.7694633,184.249342 65.2035314,184.42972 64.4603774,184.584332 C63.7172234,184.738944 62.9111992,184.816249 62.0422807,184.816249 C60.7617692,184.816249 59.612756,184.597218 58.5952066,184.159151 C57.5776573,183.721084 56.7030353,183.089761 55.9713144,182.265164 C55.2395936,181.440567 54.6793782,180.435604 54.2906514,179.250245 C53.9019247,178.064887 53.7075643,176.724936 53.7075643,175.230354 C53.7075643,173.813077 53.9076412,172.498895 54.3078011,171.287768 C54.7079609,170.07664 55.2910422,169.020141 56.0570625,168.118238 C56.8230828,167.216334 57.7663026,166.507707 58.8867502,165.992334 C60.0071978,165.47696 61.2876901,165.219277 62.7282656,165.219277 C63.3913876,165.219277 64.0316338,165.283698 64.6490233,165.412542 C65.2664128,165.541385 65.8037622,165.708879 66.2610878,165.915028 L65.5065044,170.128184 C65.232109,169.99934 64.88912,169.883383 64.477527,169.780308 C64.0659341,169.677234 63.5628835,169.625697 62.9683603,169.625697 C61.6649825,169.625697 60.6417319,170.128178 59.8985779,171.133156 C59.1554239,172.138134 58.7838525,173.426548 58.7838525,174.998437 C58.7838525,176.724937 59.1840063,178.052004 59.984326,178.979675 C60.7846457,179.907347 61.7907468,180.371176 63.0026595,180.371176 C64.031642,180.371176 64.9005475,180.190798 65.6094021,179.830037 L66.15819,184.043193 Z M71.0972812,163.247985 C70.3198278,163.247985 69.6967311,162.977418 69.2279724,162.436276 C68.7592137,161.895134 68.5248379,161.212274 68.5248379,160.387677 C68.5248379,159.537311 68.7649302,158.841568 69.245122,158.300426 C69.7253138,157.759284 70.36556,157.488717 71.1658797,157.488717 C71.9433331,157.488717 72.5664298,157.759284 73.0351885,158.300426 C73.5039472,158.841568 73.749756,159.537311 73.7726223,160.387677 C73.7726223,161.212274 73.53253,161.895134 73.0523381,162.436276 C72.5721463,162.977418 71.9319002,163.247985 71.1315805,163.247985 L71.0972812,163.247985 Z M68.6620349,184.468374 L68.6620349,165.567153 L73.6697245,165.567153 L73.6697245,184.468374 L68.6620349,184.468374 Z M85.8459563,175.46227 C85.2514331,175.46227 84.6855012,175.513807 84.1481437,175.616882 C83.6107862,175.719956 83.1363181,175.88745 82.7247251,176.119368 C82.3131321,176.351286 81.9872925,176.660505 81.7471966,177.047035 C81.5071007,177.433565 81.3870545,177.923163 81.3870545,178.515842 C81.3870545,179.31467 81.5756985,179.900899 81.9529921,180.274544 C82.3302857,180.64819 82.7818879,180.83501 83.3078122,180.83501 C83.8794692,180.83501 84.3882362,180.64819 84.8341286,180.274544 C85.280021,179.900899 85.5944276,179.417744 85.7773578,178.825064 C85.8230904,178.696221 85.8459563,178.548053 85.8459563,178.380557 L85.8459563,175.46227 Z M90.716449,179.984648 C90.716449,180.835014 90.7335985,181.653157 90.7678979,182.439101 C90.8021973,183.225046 90.8765116,183.901463 90.990843,184.468374 L86.497642,184.468374 L86.1889488,182.574386 L86.1203503,182.574386 C85.5944259,183.321677 84.9484633,183.88858 84.182443,184.27511 C83.4164227,184.66164 82.5646666,184.854902 81.6271493,184.854902 C80.8268296,184.854902 80.1122691,184.700292 79.4834465,184.391068 C78.8546239,184.081844 78.3229909,183.663109 77.8885316,183.134852 C77.4540723,182.606594 77.1167998,181.994598 76.8767039,181.298844 C76.636608,180.60309 76.5165618,179.868694 76.5165618,179.095634 C76.5165618,177.858738 76.7452212,176.789354 77.2025467,175.887451 C77.6598723,174.985548 78.3001184,174.238268 79.1233044,173.645589 C79.9464904,173.052909 80.9182926,172.614849 82.0387402,172.331393 C83.1591878,172.047938 84.3825153,171.906212 85.7087593,171.906212 L85.7087593,171.59699 C85.7087593,171.313535 85.668744,171.023642 85.588712,170.727302 C85.50868,170.430962 85.3600514,170.166837 85.1428218,169.934919 C84.9255922,169.703002 84.6340515,169.509739 84.2681911,169.355127 C83.9023306,169.200515 83.433579,169.123211 82.8619221,169.123211 C82.0616024,169.123211 81.2841606,169.252052 80.5295734,169.509739 C79.7749863,169.767425 79.1233072,170.076645 78.5745165,170.437406 L77.6827361,166.804042 C78.2315268,166.443281 79.026118,166.082525 80.0665336,165.721764 C81.1069493,165.361003 82.3474262,165.180625 83.7880017,165.180625 C85.1599783,165.180625 86.291842,165.399655 87.1836269,165.837722 C88.0754117,166.27579 88.7842556,166.86846 89.31018,167.615751 C89.8361044,168.363043 90.2019593,169.219838 90.4077558,170.186163 C90.6135523,171.152488 90.716449,172.176777 90.716449,173.259061 L90.716449,179.984648 Z M94.5579644,157.218147 L99.5656541,157.218147 L99.5656541,184.468374 L94.5579644,184.468374 L94.5579644,157.218147 Z M115.240409,158.416384 L115.240409,184.468374 L110.232719,184.468374 L110.232719,158.416384 L115.240409,158.416384 Z M119.356318,171.519684 C119.356318,170.360095 119.344885,169.297153 119.322019,168.330828 C119.299153,167.364503 119.264854,166.443287 119.219121,165.567153 L123.540826,165.567153 L123.780921,168.040932 L123.883818,168.040932 C124.066749,167.731708 124.306841,167.403163 124.604103,167.055286 C124.901364,166.707409 125.25007,166.398189 125.650229,166.127618 C126.050389,165.857047 126.513425,165.631575 127.039349,165.451194 C127.565273,165.270814 128.136922,165.180625 128.754311,165.180625 C130.446416,165.180625 131.795506,165.837716 132.801622,167.151918 C133.807738,168.46612 134.310789,170.411625 134.310789,172.988491 L134.310789,184.468374 L129.303099,184.468374 L129.303099,173.568283 C129.303099,172.485999 129.125888,171.584109 128.771461,170.862587 C128.417033,170.141064 127.80537,169.780308 126.936451,169.780308 C126.319062,169.780308 125.816011,169.986455 125.427284,170.398753 C125.038558,170.811052 124.752733,171.287765 124.569803,171.828907 C124.432606,172.215437 124.364008,172.730802 124.364008,173.375019 L124.364008,184.468374 L119.356318,184.468374 L119.356318,171.519684 Z M143.640183,160.503635 L143.640183,165.567153 L147.241604,165.567153 L147.241604,169.66435 L143.640183,169.66435 L143.640183,177.047035 C143.640183,178.206625 143.794528,179.024768 144.103223,179.501488 C144.411918,179.978209 144.909252,180.216565 145.59524,180.216565 C145.915368,180.216565 146.17261,180.203681 146.366973,180.177912 C146.561336,180.152144 146.784279,180.113491 147.035808,180.061954 L147.070108,184.352415 C146.74998,184.481258 146.309811,184.590774 145.749587,184.680964 C145.189363,184.771154 144.566266,184.816249 143.880278,184.816249 C143.079958,184.816249 142.359681,184.680965 141.719425,184.410394 C141.07917,184.139823 140.553253,183.772625 140.14166,183.308789 C139.661468,182.767648 139.30133,182.05902 139.061234,181.182885 C138.821138,180.306751 138.701092,179.172946 138.701092,177.781439 L138.701092,169.66435 L136.54024,169.66435 L136.54024,165.567153 L138.701092,165.567153 L138.701092,162.0884 L143.640183,160.503635 Z M159.177741,172.988491 C159.177741,172.576192 159.137726,172.138132 159.057694,171.674296 C158.977662,171.21046 158.840466,170.785283 158.646103,170.398753 C158.451739,170.012223 158.183065,169.69012 157.84007,169.432433 C157.497076,169.174746 157.074056,169.045905 156.570998,169.045905 C156.090807,169.045905 155.673503,169.174746 155.319076,169.432433 C154.964649,169.69012 154.673108,170.012223 154.444445,170.398753 C154.215782,170.785283 154.038571,171.21046 153.912807,171.674296 C153.787042,172.138132 153.712728,172.576192 153.689862,172.988491 L159.177741,172.988491 Z M153.724161,176.892424 C153.747027,177.536641 153.878506,178.090659 154.118602,178.554495 C154.358698,179.018331 154.678821,179.404855 155.078981,179.714079 C155.479141,180.023303 155.93646,180.248775 156.450951,180.390503 C156.965442,180.53223 157.508508,180.603093 158.080165,180.603093 C158.880485,180.603093 159.623628,180.538673 160.309616,180.409829 C160.995604,180.280986 161.647283,180.100608 162.264673,179.86869 L162.950658,183.73397 C162.150338,184.094732 161.27,184.365299 160.309616,184.545679 C159.349232,184.72606 158.343131,184.816249 157.291282,184.816249 C154.615928,184.816249 152.552277,183.972338 151.100269,182.28449 C149.64826,180.596643 148.922267,178.271056 148.922267,175.307659 C148.922267,173.993457 149.093761,172.72437 149.436755,171.500358 C149.77975,170.276346 150.2828,169.200521 150.945922,168.272849 C151.609044,167.345177 152.432218,166.597897 153.415468,166.030986 C154.398718,165.464076 155.542014,165.180625 156.845392,165.180625 C158.080171,165.180625 159.132004,165.431865 160.000923,165.934354 C160.869841,166.436843 161.590118,167.113261 162.161775,167.963627 C162.733432,168.813992 163.150735,169.799629 163.413698,170.920566 C163.67666,172.041503 163.808139,173.220402 163.808139,174.457297 C163.808139,175.024208 163.790989,175.513805 163.75669,175.926104 C163.722391,176.338403 163.682375,176.660506 163.636643,176.892424 L153.724161,176.892424 Z M166.723575,171.635643 C166.723575,170.372978 166.712142,169.252058 166.689275,168.272849 C166.666409,167.29364 166.63211,166.39175 166.586378,165.567153 L170.873783,165.567153 L171.079579,168.852641 L171.216776,168.852641 C171.628369,167.564208 172.240032,166.630108 173.051785,166.050313 C173.863538,165.470518 174.646696,165.180625 175.401284,165.180625 C175.629946,165.180625 175.81859,165.187067 175.967221,165.199951 C176.115852,165.212835 176.28163,165.245046 176.46456,165.296583 L176.46456,170.63067 C176.28163,170.579133 176.087269,170.546922 175.881473,170.534038 C175.675676,170.521154 175.435584,170.514712 175.161189,170.514712 C174.360869,170.514712 173.657742,170.75951 173.051785,171.249115 C172.445829,171.738719 172.051392,172.460231 171.868461,173.413672 C171.776996,173.748664 171.731264,174.238262 171.731264,174.882478 L171.731264,184.468374 L166.723575,184.468374 L166.723575,171.635643 Z M188.057705,172.988491 C188.057705,172.576192 188.017689,172.138132 187.937657,171.674296 C187.857625,171.21046 187.72043,170.785283 187.526066,170.398753 C187.331703,170.012223 187.063028,169.69012 186.720034,169.432433 C186.37704,169.174746 185.95402,169.045905 185.450962,169.045905 C184.97077,169.045905 184.553467,169.174746 184.19904,169.432433 C183.844612,169.69012 183.553072,170.012223 183.324409,170.398753 C183.095746,170.785283 182.918535,171.21046 182.792771,171.674296 C182.667006,172.138132 182.592692,172.576192 182.569826,172.988491 L188.057705,172.988491 Z M182.604125,176.892424 C182.626991,177.536641 182.75847,178.090659 182.998566,178.554495 C183.238662,179.018331 183.558785,179.404855 183.958945,179.714079 C184.359105,180.023303 184.816424,180.248775 185.330915,180.390503 C185.845406,180.53223 186.388472,180.603093 186.960129,180.603093 C187.760449,180.603093 188.503591,180.538673 189.18958,180.409829 C189.875568,180.280986 190.527247,180.100608 191.144637,179.86869 L191.830622,183.73397 C191.030302,184.094732 190.149963,184.365299 189.18958,184.545679 C188.229196,184.72606 187.223095,184.816249 186.171246,184.816249 C183.495892,184.816249 181.432241,183.972338 179.980233,182.28449 C178.528224,180.596643 177.802231,178.271056 177.802231,175.307659 C177.802231,173.993457 177.973725,172.72437 178.316719,171.500358 C178.659713,170.276346 179.162764,169.200521 179.825886,168.272849 C180.489008,167.345177 181.312182,166.597897 182.295432,166.030986 C183.278682,165.464076 184.421978,165.180625 185.725356,165.180625 C186.960135,165.180625 188.011968,165.431865 188.880887,165.934354 C189.749805,166.436843 190.470082,167.113261 191.041739,167.963627 C191.613396,168.813992 192.030699,169.799629 192.293661,170.920566 C192.556624,172.041503 192.688103,173.220402 192.688103,174.457297 C192.688103,175.024208 192.670953,175.513805 192.636654,175.926104 C192.602354,176.338403 192.562339,176.660506 192.516606,176.892424 L182.604125,176.892424 Z M195.569239,179.520815 C196.003699,179.80427 196.609646,180.087721 197.387099,180.371176 C198.164553,180.654632 198.907695,180.796357 199.61655,180.796357 C201.034259,180.796357 201.743103,180.268108 201.743103,179.211592 C201.743103,178.696219 201.583042,178.283927 201.262914,177.974703 C200.942786,177.665479 200.325406,177.304723 199.410755,176.892424 C197.787249,176.19667 196.655385,175.359201 196.015129,174.379992 C195.374874,173.400783 195.054751,172.382936 195.054751,171.32642 C195.054751,170.450286 195.203379,169.638585 195.500641,168.891294 C195.797902,168.144003 196.226639,167.493354 196.786862,166.939327 C197.347086,166.385301 198.027348,165.953682 198.827667,165.644458 C199.627987,165.335234 200.519759,165.180625 201.503009,165.180625 C202.394793,165.180625 203.21225,165.283698 203.955405,165.489847 C204.698559,165.695996 205.321655,165.940795 205.824713,166.22425 L204.932933,170.166836 C204.567073,169.960687 204.098321,169.748099 203.526664,169.529065 C202.955007,169.310031 202.34906,169.200516 201.708804,169.200516 C201.091415,169.200516 200.616946,169.342242 200.285385,169.625697 C199.953824,169.909152 199.788046,170.282792 199.788046,170.746628 C199.788046,171.184696 199.965257,171.558336 200.319685,171.86756 C200.674112,172.176784 201.331508,172.550424 202.291891,172.988491 C203.778199,173.658476 204.847182,174.463735 205.498871,175.404291 C206.150559,176.344847 206.476399,177.459325 206.476399,178.747759 C206.476399,180.577334 205.887601,182.046126 204.709988,183.154178 C203.532375,184.262231 201.834579,184.816249 199.61655,184.816249 C198.6333,184.816249 197.70723,184.700292 196.838311,184.468374 C195.969393,184.236456 195.249116,183.927236 194.677459,183.540706 L195.569239,179.520815 Z M215.05121,160.503635 L215.05121,165.567153 L218.652631,165.567153 L218.652631,169.66435 L215.05121,169.66435 L215.05121,177.047035 C215.05121,178.206625 215.205555,179.024768 215.51425,179.501488 C215.822945,179.978209 216.320279,180.216565 217.006267,180.216565 C217.326395,180.216565 217.583637,180.203681 217.778,180.177912 C217.972363,180.152144 218.195306,180.113491 218.446835,180.061954 L218.481135,184.352415 C218.161007,184.481258 217.720837,184.590774 217.160614,184.680964 C216.60039,184.771154 215.977293,184.816249 215.291305,184.816249 C214.490985,184.816249 213.770708,184.680965 213.130452,184.410394 C212.490197,184.139823 211.96428,183.772625 211.552687,183.308789 C211.072495,182.767648 210.712357,182.05902 210.472261,181.182885 C210.232165,180.306751 210.112119,179.172946 210.112119,177.781439 L210.112119,169.66435 L207.951266,169.66435 L207.951266,165.567153 L210.112119,165.567153 L210.112119,162.0884 L215.05121,160.503635 Z M245.47464,183.424748 C244.742919,183.708203 243.753967,183.998096 242.507755,184.294436 C241.261543,184.590776 239.975334,184.738943 238.64909,184.738943 C236.751189,184.738943 235.116275,184.474818 233.744298,183.946561 C232.372322,183.418303 231.194726,182.613044 230.211476,181.530761 C229.159627,180.396939 228.35932,178.979684 227.810529,177.278952 C227.261738,175.57822 226.99878,173.71002 227.021646,171.674296 C227.044513,169.432422 227.370352,167.467591 227.999175,165.779743 C228.627997,164.091896 229.491186,162.681082 230.588768,161.547261 C231.686349,160.41344 232.972558,159.563087 234.447433,158.996176 C235.922308,158.429266 237.505774,158.145814 239.197878,158.145814 C240.524122,158.145814 241.667419,158.261772 242.627803,158.49369 C243.588186,158.725608 244.319896,158.98329 244.822954,159.266746 L243.828276,163.866429 C243.279486,163.582974 242.650672,163.35106 241.941818,163.170679 C241.232963,162.990298 240.352625,162.900109 239.300776,162.900109 C238.29466,162.900109 237.368589,163.067603 236.522537,163.402596 C235.676485,163.737588 234.933342,164.259396 234.293086,164.968034 C233.65283,165.676673 233.155496,166.578562 232.801069,167.67373 C232.446642,168.768899 232.269431,170.063755 232.269431,171.558337 C232.269431,172.975614 232.429492,174.218933 232.74962,175.288333 C233.069748,176.357732 233.515634,177.25318 234.087291,177.974703 C234.658948,178.696225 235.333493,179.237359 236.110946,179.59812 C236.8884,179.958882 237.734439,180.13926 238.64909,180.13926 C239.655206,180.13926 240.341184,180.036186 240.707045,179.830037 L240.707045,174.070769 L237.585814,174.070769 L237.585814,169.625697 L245.47464,169.625697 L245.47464,183.424748 Z M249.076061,171.635643 C249.076061,170.372978 249.064628,169.252058 249.041761,168.272849 C249.018895,167.29364 248.984596,166.39175 248.938864,165.567153 L253.226269,165.567153 L253.432065,168.852641 L253.569262,168.852641 C253.980855,167.564208 254.592518,166.630108 255.404271,166.050313 C256.216024,165.470518 256.999182,165.180625 257.753769,165.180625 C257.982432,165.180625 258.171076,165.187067 258.319707,165.199951 C258.468338,165.212835 258.634116,165.245046 258.817046,165.296583 L258.817046,170.63067 C258.634116,170.579133 258.439755,170.546922 258.233959,170.534038 C258.028162,170.521154 257.78807,170.514712 257.513675,170.514712 C256.713355,170.514712 256.010227,170.75951 255.404271,171.249115 C254.798315,171.738719 254.403877,172.460231 254.220947,173.413672 C254.129482,173.748664 254.08375,174.238262 254.08375,174.882478 L254.08375,184.468374 L249.076061,184.468374 L249.076061,171.635643 Z M268.283637,180.757704 C268.740963,180.757704 269.146833,180.609537 269.501261,180.313197 C269.855688,180.016858 270.152945,179.604565 270.393041,179.076307 C270.633137,178.54805 270.816064,177.936053 270.941829,177.240299 C271.067593,176.544545 271.130475,175.797265 271.130475,174.998437 C271.130475,174.302683 271.079026,173.613381 270.976128,172.930512 C270.87323,172.247642 270.707452,171.635646 270.478789,171.094504 C270.250126,170.553362 269.952869,170.115301 269.587009,169.780308 C269.221148,169.445316 268.775263,169.277822 268.249338,169.277822 C267.700548,169.277822 267.231796,169.445316 266.843069,169.780308 C266.454342,170.115301 266.145652,170.553362 265.91699,171.094504 C265.688327,171.635646 265.522549,172.247642 265.419651,172.930512 C265.316752,173.613381 265.265304,174.302683 265.265304,174.998437 C265.265304,175.823034 265.328185,176.583198 265.45395,177.278952 C265.579714,177.974706 265.768358,178.580261 266.019887,179.095634 C266.271416,179.611007 266.580106,180.016858 266.945967,180.313197 C267.311827,180.609537 267.74628,180.757704 268.249338,180.757704 L268.283637,180.757704 Z M268.14644,184.854902 C266.98026,184.854902 265.911278,184.635871 264.939461,184.197804 C263.967644,183.759737 263.127321,183.121972 262.418467,182.28449 C261.709612,181.447009 261.155113,180.42272 260.754953,179.211592 C260.354793,178.000465 260.154717,176.634746 260.154717,175.114395 C260.154717,173.542507 260.36051,172.144578 260.772103,170.920566 C261.183696,169.696554 261.755344,168.659381 262.487065,167.809015 C263.218786,166.958649 264.087692,166.308 265.093808,165.857049 C266.099924,165.406097 267.197489,165.180625 268.386535,165.180625 C269.575582,165.180625 270.65028,165.412539 271.610664,165.876375 C272.571048,166.340211 273.394221,166.997302 274.08021,167.847668 C274.766198,168.698034 275.297831,169.722323 275.675125,170.920566 C276.052418,172.118809 276.241062,173.439433 276.241062,174.882478 C276.241062,176.686285 276.00097,178.219497 275.520778,179.482162 C275.040586,180.744826 274.417489,181.775558 273.651469,182.574386 C272.885449,183.373215 272.02226,183.953001 271.061876,184.313762 C270.101493,184.674524 269.141123,184.854902 268.18074,184.854902 L268.14644,184.854902 Z M294.008071,178.477189 C294.008071,179.662548 294.019504,180.751257 294.04237,181.743351 C294.065236,182.735445 294.099535,183.643776 294.145268,184.468374 L289.823563,184.468374 L289.583468,181.994594 L289.48057,181.994594 C289.29764,182.303818 289.068981,182.625922 288.794586,182.960914 C288.52019,183.295907 288.188634,183.605126 287.799908,183.888582 C287.411181,184.172037 286.953862,184.403951 286.427938,184.584332 C285.902013,184.764713 285.307499,184.854902 284.644377,184.854902 C282.975139,184.854902 281.648915,184.210695 280.665665,182.922261 C279.682415,181.633828 279.190797,179.58525 279.190797,176.776466 L279.190797,165.567153 L284.198487,165.567153 L284.198487,175.926104 C284.198487,177.291843 284.381414,178.354785 284.747275,179.11496 C285.113135,179.875136 285.707649,180.255218 286.530835,180.255218 C287.148225,180.255218 287.639843,180.061956 288.005703,179.675426 C288.371563,179.288896 288.634522,178.876604 288.794586,178.438536 C288.931783,178.103544 289.000381,177.652599 289.000381,177.085688 L289.000381,165.567153 L294.008071,165.567153 L294.008071,178.477189 Z M302.925874,176.737813 C302.925874,177.304724 302.971606,177.742784 303.063071,178.052008 C303.246002,178.799299 303.571841,179.385528 304.0406,179.810711 C304.509358,180.235894 305.040991,180.448482 305.635515,180.448482 C306.664497,180.448482 307.447655,179.939559 307.985013,178.921696 C308.52237,177.903834 308.791045,176.608978 308.791045,175.03709 C308.791045,173.439432 308.533803,172.151018 308.019312,171.171809 C307.504821,170.1926 306.733096,169.703003 305.704113,169.703003 C305.086724,169.703003 304.526508,169.941359 304.02345,170.41808 C303.520392,170.8948 303.200269,171.506796 303.063071,172.254088 C302.971606,172.563312 302.925874,172.936952 302.925874,173.375019 L302.925874,176.737813 Z M297.918185,171.790254 C297.918185,170.579127 297.906752,169.464649 297.883885,168.446787 C297.861019,167.428924 297.82672,166.469056 297.780988,165.567153 L302.136992,165.567153 L302.377086,168.079585 L302.445685,168.079585 C302.971609,167.151913 303.657587,166.436843 304.50364,165.934354 C305.349692,165.431865 306.321494,165.180625 307.419075,165.180625 C308.333726,165.180625 309.179766,165.412539 309.957219,165.876375 C310.734673,166.340211 311.409218,166.997302 311.980875,167.847668 C312.552532,168.698034 313.004134,169.715881 313.335695,170.90124 C313.667256,172.086598 313.833034,173.40078 313.833034,174.843826 C313.833034,176.544557 313.632957,178.026233 313.232797,179.288898 C312.832637,180.551562 312.306721,181.595178 311.655032,182.419775 C311.003343,183.244372 310.2602,183.856369 309.425581,184.255783 C308.590962,184.655197 307.739206,184.854902 306.870287,184.854902 C305.955636,184.854902 305.161045,184.655197 304.48649,184.255783 C303.811935,183.856369 303.314601,183.373214 302.994473,182.806303 L302.925874,182.806303 L302.925874,192.044323 L297.918185,192.044323 L297.918185,171.790254 Z M324.01991,184.468374 L324.01991,169.66435 L321.790459,169.66435 L321.790459,165.567153 L324.01991,165.567153 L324.01991,164.832749 C324.01991,163.698928 324.168538,162.58445 324.4658,161.489282 C324.763061,160.394114 325.277545,159.460014 326.009266,158.686954 C326.626655,158.016968 327.329783,157.540255 328.118669,157.2568 C328.907556,156.973345 329.690714,156.831619 330.468168,156.831619 C331.062691,156.831619 331.582891,156.870272 332.028783,156.947578 C332.474676,157.024884 332.869113,157.127957 333.212107,157.2568 L332.903414,161.585914 C332.697617,161.508608 332.463242,161.444187 332.200279,161.39265 C331.937317,161.341113 331.645777,161.315344 331.325649,161.315344 C330.502463,161.315344 329.907948,161.64389 329.542088,162.300991 C329.176228,162.958092 328.9933,163.737582 328.9933,164.639485 L328.9933,165.567153 L332.217429,165.567153 L332.217429,169.66435 L329.027599,169.66435 L329.027599,184.468374 L324.01991,184.468374 Z M341.478225,180.757704 C341.935551,180.757704 342.341421,180.609537 342.695848,180.313197 C343.050276,180.016858 343.347533,179.604565 343.587629,179.076307 C343.827724,178.54805 344.010652,177.936053 344.136416,177.240299 C344.262181,176.544545 344.325062,175.797265 344.325062,174.998437 C344.325062,174.302683 344.273614,173.613381 344.170716,172.930512 C344.067817,172.247642 343.902039,171.635646 343.673377,171.094504 C343.444714,170.553362 343.147457,170.115301 342.781596,169.780308 C342.415736,169.445316 341.96985,169.277822 341.443926,169.277822 C340.895135,169.277822 340.426383,169.445316 340.037657,169.780308 C339.64893,170.115301 339.34024,170.553362 339.111577,171.094504 C338.882914,171.635646 338.717136,172.247642 338.614238,172.930512 C338.51134,173.613381 338.459892,174.302683 338.459892,174.998437 C338.459892,175.823034 338.522773,176.583198 338.648537,177.278952 C338.774302,177.974706 338.962946,178.580261 339.214475,179.095634 C339.466004,179.611007 339.774694,180.016858 340.140555,180.313197 C340.506415,180.609537 340.940868,180.757704 341.443926,180.757704 L341.478225,180.757704 Z M341.341028,184.854902 C340.174848,184.854902 339.105865,184.635871 338.134049,184.197804 C337.162232,183.759737 336.321909,183.121972 335.613054,182.28449 C334.9042,181.447009 334.349701,180.42272 333.949541,179.211592 C333.549381,178.000465 333.349304,176.634746 333.349304,175.114395 C333.349304,173.542507 333.555098,172.144578 333.966691,170.920566 C334.378284,169.696554 334.949932,168.659381 335.681653,167.809015 C336.413374,166.958649 337.282279,166.308 338.288395,165.857049 C339.294512,165.406097 340.392076,165.180625 341.581123,165.180625 C342.770169,165.180625 343.844868,165.412539 344.805252,165.876375 C345.765635,166.340211 346.588809,166.997302 347.274797,167.847668 C347.960786,168.698034 348.492419,169.722323 348.869712,170.920566 C349.247006,172.118809 349.43565,173.439433 349.43565,174.882478 C349.43565,176.686285 349.195557,178.219497 348.715366,179.482162 C348.235174,180.744826 347.612077,181.775558 346.846057,182.574386 C346.080037,183.373215 345.216847,183.953001 344.256464,184.313762 C343.29608,184.674524 342.335711,184.854902 341.375327,184.854902 L341.341028,184.854902 Z M352.453983,171.635643 C352.453983,170.372978 352.44255,169.252058 352.419684,168.272849 C352.396818,167.29364 352.362519,166.39175 352.316786,165.567153 L356.604192,165.567153 L356.809987,168.852641 L356.947184,168.852641 C357.358777,167.564208 357.970441,166.630108 358.782194,166.050313 C359.593947,165.470518 360.377105,165.180625 361.131692,165.180625 C361.360355,165.180625 361.548999,165.187067 361.69763,165.199951 C361.84626,165.212835 362.012038,165.245046 362.194969,165.296583 L362.194969,170.63067 C362.012038,170.579133 361.817678,170.546922 361.611882,170.534038 C361.406085,170.521154 361.165993,170.514712 360.891597,170.514712 C360.091278,170.514712 359.38815,170.75951 358.782194,171.249115 C358.176238,171.738719 357.7818,172.460231 357.59887,173.413672 C357.507405,173.748664 357.461673,174.238262 357.461673,174.882478 L357.461673,184.468374 L352.453983,184.468374 L352.453983,171.635643 Z M376.360557,180.177912 C376.543487,180.22945 376.777863,180.255218 377.063691,180.255218 L377.869723,180.255218 C378.852973,180.255218 379.756178,180.081282 380.579364,179.733405 C381.40255,179.385528 382.105677,178.837952 382.688767,178.090661 C383.271857,177.34337 383.729176,176.377059 384.060737,175.191701 C384.392298,174.006342 384.558076,172.601971 384.558076,170.978545 C384.558076,168.272835 384.009294,166.204931 382.911712,164.77477 C381.814131,163.344609 380.27068,162.62954 378.281314,162.62954 C377.823989,162.62954 377.440984,162.648866 377.13229,162.687519 C376.823595,162.726172 376.566353,162.771266 376.360557,162.822804 L376.360557,180.177912 Z M371.352867,158.764259 C372.198919,158.609647 373.165005,158.480806 374.251153,158.377731 C375.337301,158.274657 376.474881,158.22312 377.663928,158.22312 C379.653294,158.22312 381.322507,158.44215 382.671618,158.880218 C384.020728,159.318285 385.198324,159.98826 386.20444,160.890164 C387.347754,161.895141 388.239525,163.215766 388.879781,164.852076 C389.520037,166.488386 389.84016,168.504754 389.84016,170.90124 C389.84016,173.478106 389.508604,175.642641 388.845482,177.394911 C388.18236,179.14718 387.302021,180.551551 386.20444,181.608066 C385.106858,182.69035 383.757768,183.482725 382.157129,183.985214 C380.55649,184.487702 378.715782,184.738943 376.634951,184.738943 C375.46877,184.738943 374.44552,184.700291 373.565168,184.622985 C372.684817,184.545679 371.94739,184.45549 371.352867,184.352415 L371.352867,158.764259 Z M402.290785,172.988491 C402.290785,172.576192 402.25077,172.138132 402.170738,171.674296 C402.090706,171.21046 401.95351,170.785283 401.759147,170.398753 C401.564784,170.012223 401.296109,169.69012 400.953115,169.432433 C400.610121,169.174746 400.187101,169.045905 399.684043,169.045905 C399.203851,169.045905 398.786548,169.174746 398.43212,169.432433 C398.077693,169.69012 397.786152,170.012223 397.55749,170.398753 C397.328827,170.785283 397.151616,171.21046 397.025851,171.674296 C396.900087,172.138132 396.825773,172.576192 396.802906,172.988491 L402.290785,172.988491 Z M396.837206,176.892424 C396.860072,177.536641 396.991551,178.090659 397.231647,178.554495 C397.471743,179.018331 397.791866,179.404855 398.192026,179.714079 C398.592186,180.023303 399.049504,180.248775 399.563995,180.390503 C400.078487,180.53223 400.621553,180.603093 401.19321,180.603093 C401.993529,180.603093 402.736672,180.538673 403.42266,180.409829 C404.108649,180.280986 404.760328,180.100608 405.377717,179.86869 L406.063702,183.73397 C405.263383,184.094732 404.383044,184.365299 403.42266,184.545679 C402.462277,184.72606 401.456176,184.816249 400.404327,184.816249 C397.728973,184.816249 395.665322,183.972338 394.213313,182.28449 C392.761305,180.596643 392.035311,178.271056 392.035311,175.307659 C392.035311,173.993457 392.206806,172.72437 392.5498,171.500358 C392.892794,170.276346 393.395845,169.200521 394.058967,168.272849 C394.722089,167.345177 395.545262,166.597897 396.528512,166.030986 C397.511762,165.464076 398.655059,165.180625 399.958437,165.180625 C401.193216,165.180625 402.245049,165.431865 403.113967,165.934354 C403.982886,166.436843 404.703163,167.113261 405.27482,167.963627 C405.846477,168.813992 406.26378,169.799629 406.526742,170.920566 C406.789704,172.041503 406.921183,173.220402 406.921183,174.457297 C406.921183,175.024208 406.904034,175.513805 406.869735,175.926104 C406.835435,176.338403 406.79542,176.660506 406.749687,176.892424 L396.837206,176.892424 Z M409.80232,179.520815 C410.236779,179.80427 410.842726,180.087721 411.62018,180.371176 C412.397633,180.654632 413.140776,180.796357 413.849631,180.796357 C415.26734,180.796357 415.976184,180.268108 415.976184,179.211592 C415.976184,178.696219 415.816122,178.283927 415.495995,177.974703 C415.175867,177.665479 414.558486,177.304723 413.643835,176.892424 C412.02033,176.19667 410.888466,175.359201 410.24821,174.379992 C409.607954,173.400783 409.287831,172.382936 409.287831,171.32642 C409.287831,170.450286 409.43646,169.638585 409.733721,168.891294 C410.030983,168.144003 410.459719,167.493354 411.019943,166.939327 C411.580167,166.385301 412.260428,165.953682 413.060748,165.644458 C413.861068,165.335234 414.752839,165.180625 415.736089,165.180625 C416.627874,165.180625 417.445331,165.283698 418.188485,165.489847 C418.931639,165.695996 419.554736,165.940795 420.057794,166.22425 L419.166014,170.166836 C418.800153,169.960687 418.331402,169.748099 417.759745,169.529065 C417.188088,169.310031 416.58214,169.200516 415.941885,169.200516 C415.324495,169.200516 414.850027,169.342242 414.518466,169.625697 C414.186905,169.909152 414.021127,170.282792 414.021127,170.746628 C414.021127,171.184696 414.198338,171.558336 414.552765,171.86756 C414.907193,172.176784 415.564588,172.550424 416.524972,172.988491 C418.01128,173.658476 419.080262,174.463735 419.731951,175.404291 C420.38364,176.344847 420.70948,177.459325 420.70948,178.747759 C420.70948,180.577334 420.120682,182.046126 418.943069,183.154178 C417.765455,184.262231 416.06766,184.816249 413.849631,184.816249 C412.866381,184.816249 411.940311,184.700292 411.071392,184.468374 C410.202473,184.236456 409.482197,183.927236 408.91054,183.540706 L409.80232,179.520815 Z M426.025863,163.247985 C425.248409,163.247985 424.625312,162.977418 424.156554,162.436276 C423.687795,161.895134 423.453419,161.212274 423.453419,160.387677 C423.453419,159.537311 423.693512,158.841568 424.173703,158.300426 C424.653895,157.759284 425.294141,157.488717 426.094461,157.488717 C426.871914,157.488717 427.495011,157.759284 427.96377,158.300426 C428.432529,158.841568 428.678337,159.537311 428.701204,160.387677 C428.701204,161.212274 428.461111,161.895134 427.980919,162.436276 C427.500728,162.977418 426.860482,163.247985 426.060162,163.247985 L426.025863,163.247985 Z M423.590616,184.468374 L423.590616,165.567153 L428.598306,165.567153 L428.598306,184.468374 L423.590616,184.468374 Z M442.283704,173.027144 C442.283704,172.614845 442.249406,172.228321 442.180807,171.86756 C441.997876,171.197574 441.706336,170.649998 441.306176,170.224816 C440.906016,169.799633 440.397249,169.587044 439.77986,169.587044 C438.865208,169.587044 438.122066,170.070199 437.550409,171.036524 C436.978752,172.002849 436.692928,173.323474 436.692928,174.998437 C436.692928,176.518788 436.961602,177.749223 437.49896,178.689779 C438.036317,179.630336 438.785177,180.100607 439.74556,180.100607 C440.294351,180.100607 440.780252,179.913787 441.203278,179.540141 C441.626304,179.166496 441.929278,178.670456 442.112208,178.052008 C442.180807,177.82009 442.226539,177.56885 442.249405,177.298279 C442.272271,177.027708 442.283704,176.763583 442.283704,176.505896 L442.283704,173.027144 Z M447.291394,181.917289 C447.291394,183.798401 447.108467,185.421803 446.742606,186.787542 C446.376746,188.153281 445.759366,189.287085 444.890447,190.188988 C444.067261,191.013586 443.101175,191.593372 441.992161,191.928365 C440.883146,192.263357 439.711267,192.430851 438.476488,192.430851 C437.447506,192.430851 436.458554,192.321336 435.509604,192.102302 C434.560653,191.883269 433.72033,191.567607 432.988609,191.155309 L433.983287,186.864847 C434.486345,187.174071 435.120875,187.457522 435.886895,187.715209 C436.652916,187.972896 437.470373,188.101737 438.339291,188.101737 C439.57407,188.101737 440.551589,187.708771 441.271877,186.922827 C441.992164,186.136882 442.352303,184.906447 442.352303,183.231484 L442.352303,182.033247 L442.283704,182.033247 C441.849245,182.780538 441.277597,183.34744 440.568742,183.73397 C439.859888,184.1205 439.071013,184.313762 438.202094,184.313762 C437.195978,184.313762 436.287057,184.075406 435.475304,183.598685 C434.663552,183.121965 433.971857,182.471316 433.4002,181.646719 C432.828543,180.822122 432.39409,179.855811 432.096829,178.747759 C431.799567,177.639706 431.650939,176.441481 431.650939,175.153048 C431.650939,173.606928 431.839583,172.221883 432.216876,170.997872 C432.59417,169.77386 433.09722,168.730245 433.726043,167.866995 C434.354866,167.003744 435.098008,166.340211 435.955494,165.876375 C436.812979,165.412539 437.7219,165.180625 438.682284,165.180625 C439.711266,165.180625 440.563022,165.418981 441.237577,165.895702 C441.912133,166.372422 442.443766,166.984418 442.832492,167.73171 L442.901091,167.73171 L443.106886,165.567153 L447.428591,165.567153 C447.382859,166.262907 447.34856,167.061723 447.325693,167.963627 C447.302827,168.86553 447.291394,169.98645 447.291394,171.32642 L447.291394,181.917289 Z M451.09861,171.519684 C451.09861,170.360095 451.087177,169.297153 451.064311,168.330828 C451.041445,167.364503 451.007146,166.443287 450.961413,165.567153 L455.283118,165.567153 L455.523213,168.040932 L455.626111,168.040932 C455.809041,167.731708 456.049133,167.403163 456.346395,167.055286 C456.643656,166.707409 456.992362,166.398189 457.392522,166.127618 C457.792681,165.857047 458.255717,165.631575 458.781641,165.451194 C459.307565,165.270814 459.879214,165.180625 460.496603,165.180625 C462.188708,165.180625 463.537798,165.837716 464.543914,167.151918 C465.55003,168.46612 466.053081,170.411625 466.053081,172.988491 L466.053081,184.468374 L461.045391,184.468374 L461.045391,173.568283 C461.045391,172.485999 460.86818,171.584109 460.513753,170.862587 C460.159326,170.141064 459.547662,169.780308 458.678743,169.780308 C458.061354,169.780308 457.558303,169.986455 457.169577,170.398753 C456.78085,170.811052 456.495026,171.287765 456.312095,171.828907 C456.174898,172.215437 456.1063,172.730802 456.1063,173.375019 L456.1063,184.468374 L451.09861,184.468374 L451.09861,171.519684 Z M483.648593,180.757704 C484.105919,180.757704 484.511789,180.609537 484.866216,180.313197 C485.220644,180.016858 485.517901,179.604565 485.757997,179.076307 C485.998093,178.54805 486.18102,177.936053 486.306785,177.240299 C486.432549,176.544545 486.49543,175.797265 486.49543,174.998437 C486.49543,174.302683 486.443982,173.613381 486.341084,172.930512 C486.238186,172.247642 486.072408,171.635646 485.843745,171.094504 C485.615082,170.553362 485.317825,170.115301 484.951964,169.780308 C484.586104,169.445316 484.140218,169.277822 483.614294,169.277822 C483.065503,169.277822 482.596752,169.445316 482.208025,169.780308 C481.819298,170.115301 481.510608,170.553362 481.281945,171.094504 C481.053283,171.635646 480.887505,172.247642 480.784606,172.930512 C480.681708,173.613381 480.63026,174.302683 480.63026,174.998437 C480.63026,175.823034 480.693141,176.583198 480.818906,177.278952 C480.94467,177.974706 481.133314,178.580261 481.384843,179.095634 C481.636372,179.611007 481.945062,180.016858 482.310923,180.313197 C482.676783,180.609537 483.111236,180.757704 483.614294,180.757704 L483.648593,180.757704 Z M483.511396,184.854902 C482.345216,184.854902 481.276234,184.635871 480.304417,184.197804 C479.3326,183.759737 478.492277,183.121972 477.783422,182.28449 C477.074568,181.447009 476.520069,180.42272 476.119909,179.211592 C475.719749,178.000465 475.519672,176.634746 475.519672,175.114395 C475.519672,173.542507 475.725466,172.144578 476.137059,170.920566 C476.548652,169.696554 477.1203,168.659381 477.852021,167.809015 C478.583742,166.958649 479.452647,166.308 480.458763,165.857049 C481.46488,165.406097 482.562445,165.180625 483.751491,165.180625 C484.940537,165.180625 486.015236,165.412539 486.97562,165.876375 C487.936004,166.340211 488.759177,166.997302 489.445166,167.847668 C490.131154,168.698034 490.662787,169.722323 491.04008,170.920566 C491.417374,172.118809 491.606018,173.439433 491.606018,174.882478 C491.606018,176.686285 491.365926,178.219497 490.885734,179.482162 C490.405542,180.744826 489.782445,181.775558 489.016425,182.574386 C488.250405,183.373215 487.387216,183.953001 486.426832,184.313762 C485.466448,184.674524 484.506079,184.854902 483.545695,184.854902 L483.511396,184.854902 Z M495.310336,184.468374 L495.310336,169.66435 L493.080885,169.66435 L493.080885,165.567153 L495.310336,165.567153 L495.310336,164.832749 C495.310336,163.698928 495.458965,162.58445 495.756226,161.489282 C496.053488,160.394114 496.567972,159.460014 497.299692,158.686954 C497.917082,158.016968 498.620209,157.540255 499.409096,157.2568 C500.197983,156.973345 500.981141,156.831619 501.758594,156.831619 C502.353117,156.831619 502.873317,156.870272 503.31921,156.947578 C503.765102,157.024884 504.15954,157.127957 504.502534,157.2568 L504.193841,161.585914 C503.988044,161.508608 503.753668,161.444187 503.490706,161.39265 C503.227744,161.341113 502.936203,161.315344 502.616075,161.315344 C501.792889,161.315344 501.198375,161.64389 500.832515,162.300991 C500.466654,162.958092 500.283727,163.737582 500.283727,164.639485 L500.283727,165.567153 L503.507856,165.567153 L503.507856,169.66435 L500.318026,169.66435 L500.318026,184.468374 L495.310336,184.468374 Z M527.723122,183.849929 C527.288663,184.081847 526.619834,184.300877 525.716616,184.507026 C524.813399,184.713176 523.755849,184.816249 522.543936,184.816249 C520.691768,184.816249 519.074003,184.487703 517.690593,183.830602 C516.307184,183.173501 515.152454,182.258728 514.22637,181.086253 C513.300285,179.913779 512.602874,178.535176 512.134116,176.950403 C511.665357,175.36563 511.430981,173.645598 511.430981,171.790254 C511.430981,169.496843 511.745388,167.493359 512.37421,165.779743 C513.003033,164.066127 513.849073,162.635988 514.912354,161.489282 C515.975636,160.342576 517.210397,159.485781 518.616673,158.918871 C520.022949,158.35196 521.503518,158.068509 523.058425,158.068509 C524.247471,158.068509 525.270722,158.178024 526.128207,158.397058 C526.985693,158.616091 527.60879,158.841564 527.997516,159.073482 L527.002838,163.59586 C526.568379,163.363942 526.042462,163.164238 525.425073,162.996741 C524.807683,162.829245 524.098839,162.745498 523.29852,162.745498 C522.383869,162.745498 521.526396,162.919434 520.726076,163.267311 C519.925757,163.615188 519.228346,164.14988 518.633823,164.871402 C518.039299,165.592925 517.570548,166.501257 517.227553,167.596425 C516.884559,168.691593 516.713065,169.986449 516.713065,171.481032 C516.713065,174.264047 517.301863,176.383488 518.479476,177.839418 C519.657089,179.295347 521.274854,180.023301 523.332819,180.023301 C523.995941,180.023301 524.66477,179.95888 525.339325,179.830037 C526.01388,179.701194 526.579812,179.5337 527.037137,179.327551 L527.723122,183.849929 Z M537.395509,180.757704 C537.852835,180.757704 538.258705,180.609537 538.613132,180.313197 C538.96756,180.016858 539.264817,179.604565 539.504913,179.076307 C539.745009,178.54805 539.927936,177.936053 540.053701,177.240299 C540.179465,176.544545 540.242347,175.797265 540.242347,174.998437 C540.242347,174.302683 540.190898,173.613381 540.088,172.930512 C539.985102,172.247642 539.819324,171.635646 539.590661,171.094504 C539.361998,170.553362 539.064741,170.115301 538.698881,169.780308 C538.33302,169.445316 537.887134,169.277822 537.36121,169.277822 C536.812419,169.277822 536.343668,169.445316 535.954941,169.780308 C535.566214,170.115301 535.257524,170.553362 535.028861,171.094504 C534.800199,171.635646 534.634421,172.247642 534.531522,172.930512 C534.428624,173.613381 534.377176,174.302683 534.377176,174.998437 C534.377176,175.823034 534.440057,176.583198 534.565822,177.278952 C534.691586,177.974706 534.88023,178.580261 535.131759,179.095634 C535.383288,179.611007 535.691978,180.016858 536.057839,180.313197 C536.423699,180.609537 536.858152,180.757704 537.36121,180.757704 L537.395509,180.757704 Z M537.258312,184.854902 C536.092132,184.854902 535.02315,184.635871 534.051333,184.197804 C533.079516,183.759737 532.239193,183.121972 531.530338,182.28449 C530.821484,181.447009 530.266985,180.42272 529.866825,179.211592 C529.466665,178.000465 529.266588,176.634746 529.266588,175.114395 C529.266588,173.542507 529.472382,172.144578 529.883975,170.920566 C530.295568,169.696554 530.867216,168.659381 531.598937,167.809015 C532.330658,166.958649 533.199563,166.308 534.205679,165.857049 C535.211796,165.406097 536.309361,165.180625 537.498407,165.180625 C538.687453,165.180625 539.762152,165.412539 540.722536,165.876375 C541.68292,166.340211 542.506093,166.997302 543.192082,167.847668 C543.87807,168.698034 544.409703,169.722323 544.786996,170.920566 C545.16429,172.118809 545.352934,173.439433 545.352934,174.882478 C545.352934,176.686285 545.112842,178.219497 544.63265,179.482162 C544.152458,180.744826 543.529361,181.775558 542.763341,182.574386 C541.997321,183.373215 541.134132,183.953001 540.173748,184.313762 C539.213364,184.674524 538.252995,184.854902 537.292611,184.854902 L537.258312,184.854902 Z M548.371267,171.519684 C548.371267,170.360095 548.359834,169.297153 548.336968,168.330828 C548.314102,167.364503 548.279803,166.443287 548.23407,165.567153 L552.487177,165.567153 L552.727271,168.002279 L552.830169,168.002279 C553.013099,167.693055 553.247475,167.370952 553.533304,167.035959 C553.819132,166.700967 554.156405,166.398189 554.545131,166.127618 C554.933858,165.857047 555.379744,165.631575 555.882802,165.451194 C556.38586,165.270814 556.946075,165.180625 557.563465,165.180625 C558.615314,165.180625 559.512802,165.451192 560.255956,165.992334 C560.99911,166.533476 561.542176,167.280756 561.88517,168.234196 L561.953768,168.234196 C562.25103,167.77036 562.571153,167.351626 562.914147,166.97798 C563.257141,166.604334 563.622996,166.288673 564.011723,166.030986 C564.423316,165.747531 564.869202,165.534943 565.349393,165.393215 C565.829585,165.251487 566.366935,165.180625 566.961458,165.180625 C568.539231,165.180625 569.80829,165.831274 570.768674,167.132591 C571.729058,168.433909 572.209242,170.411624 572.209242,173.065797 L572.209242,184.468374 L567.30445,184.468374 L567.30445,173.916158 C567.30445,172.627725 567.138672,171.609878 566.807111,170.862587 C566.47555,170.115296 565.909618,169.741655 565.109299,169.741655 C564.560508,169.741655 564.103189,169.922033 563.737329,170.282795 C563.371469,170.643556 563.097077,171.107385 562.914147,171.674296 C562.799816,172.112363 562.742651,172.60196 562.742651,173.143102 L562.742651,184.468374 L557.837859,184.468374 L557.837859,173.490977 C557.837859,172.434462 557.677797,171.545457 557.357669,170.823934 C557.037542,170.102411 556.477326,169.741655 555.677006,169.741655 C555.10535,169.741655 554.636598,169.94136 554.270737,170.340774 C553.904877,170.740188 553.630486,171.197575 553.447556,171.712948 C553.378957,171.919098 553.333225,172.151012 553.310359,172.408699 C553.287492,172.666386 553.276059,172.924068 553.276059,173.181755 L553.276059,184.468374 L548.371267,184.468374 L548.371267,171.519684 Z M576.016458,171.519684 C576.016458,170.360095 576.005025,169.297153 575.982159,168.330828 C575.959293,167.364503 575.924994,166.443287 575.879261,165.567153 L580.132368,165.567153 L580.372462,168.002279 L580.47536,168.002279 C580.65829,167.693055 580.892666,167.370952 581.178495,167.035959 C581.464323,166.700967 581.801596,166.398189 582.190322,166.127618 C582.579049,165.857047 583.024935,165.631575 583.527993,165.451194 C584.031051,165.270814 584.591266,165.180625 585.208656,165.180625 C586.260505,165.180625 587.157993,165.451192 587.901147,165.992334 C588.644301,166.533476 589.187367,167.280756 589.530361,168.234196 L589.598959,168.234196 C589.896221,167.77036 590.216344,167.351626 590.559338,166.97798 C590.902332,166.604334 591.268187,166.288673 591.656914,166.030986 C592.068507,165.747531 592.514393,165.534943 592.994584,165.393215 C593.474776,165.251487 594.012126,165.180625 594.606649,165.180625 C596.184422,165.180625 597.453481,165.831274 598.413865,167.132591 C599.374249,168.433909 599.854433,170.411624 599.854433,173.065797 L599.854433,184.468374 L594.949641,184.468374 L594.949641,173.916158 C594.949641,172.627725 594.783863,171.609878 594.452302,170.862587 C594.120741,170.115296 593.554809,169.741655 592.75449,169.741655 C592.205699,169.741655 591.74838,169.922033 591.38252,170.282795 C591.01666,170.643556 590.742268,171.107385 590.559338,171.674296 C590.445007,172.112363 590.387842,172.60196 590.387842,173.143102 L590.387842,184.468374 L585.48305,184.468374 L585.48305,173.490977 C585.48305,172.434462 585.322988,171.545457 585.00286,170.823934 C584.682733,170.102411 584.122517,169.741655 583.322198,169.741655 C582.750541,169.741655 582.281789,169.94136 581.915928,170.340774 C581.550068,170.740188 581.275677,171.197575 581.092747,171.712948 C581.024148,171.919098 580.978416,172.151012 580.95555,172.408699 C580.932683,172.666386 580.92125,172.924068 580.92125,173.181755 L580.92125,184.468374 L576.016458,184.468374 L576.016458,171.519684 Z M618.410325,178.477189 C618.410325,179.662548 618.421758,180.751257 618.444624,181.743351 C618.46749,182.735445 618.501789,183.643776 618.547522,184.468374 L614.225817,184.468374 L613.985722,181.994594 L613.882824,181.994594 C613.699894,182.303818 613.471235,182.625922 613.196839,182.960914 C612.922444,183.295907 612.590888,183.605126 612.202161,183.888582 C611.813435,184.172037 611.356116,184.403951 610.830192,184.584332 C610.304267,184.764713 609.709753,184.854902 609.046631,184.854902 C607.377393,184.854902 606.051168,184.210695 605.067918,182.922261 C604.084669,181.633828 603.593051,179.58525 603.593051,176.776466 L603.593051,165.567153 L608.600741,165.567153 L608.600741,175.926104 C608.600741,177.291843 608.783668,178.354785 609.149529,179.11496 C609.515389,179.875136 610.109903,180.255218 610.933089,180.255218 C611.550479,180.255218 612.042096,180.061956 612.407957,179.675426 C612.773817,179.288896 613.036775,178.876604 613.196839,178.438536 C613.334037,178.103544 613.402635,177.652599 613.402635,177.085688 L613.402635,165.567153 L618.410325,165.567153 L618.410325,178.477189 Z M622.320438,171.519684 C622.320438,170.360095 622.309005,169.297153 622.286139,168.330828 C622.263273,167.364503 622.228974,166.443287 622.183241,165.567153 L626.504946,165.567153 L626.745041,168.040932 L626.847939,168.040932 C627.030869,167.731708 627.270961,167.403163 627.568223,167.055286 C627.865484,166.707409 628.21419,166.398189 628.61435,166.127618 C629.01451,165.857047 629.477545,165.631575 630.003469,165.451194 C630.529394,165.270814 631.101042,165.180625 631.718431,165.180625 C633.410536,165.180625 634.759626,165.837716 635.765742,167.151918 C636.771858,168.46612 637.274909,170.411625 637.274909,172.988491 L637.274909,184.468374 L632.267219,184.468374 L632.267219,173.568283 C632.267219,172.485999 632.090008,171.584109 631.735581,170.862587 C631.381154,170.141064 630.76949,169.780308 629.900571,169.780308 C629.283182,169.780308 628.780131,169.986455 628.391405,170.398753 C628.002678,170.811052 627.716854,171.287765 627.533924,171.828907 C627.396726,172.215437 627.328128,172.730802 627.328128,173.375019 L627.328128,184.468374 L622.320438,184.468374 L622.320438,171.519684 Z M643.517371,163.247985 C642.739918,163.247985 642.116821,162.977418 641.648063,162.436276 C641.179304,161.895134 640.944928,161.212274 640.944928,160.387677 C640.944928,159.537311 641.18502,158.841568 641.665212,158.300426 C642.145404,157.759284 642.78565,157.488717 643.58597,157.488717 C644.363423,157.488717 644.98652,157.759284 645.455279,158.300426 C645.924037,158.841568 646.169846,159.537311 646.192713,160.387677 C646.192713,161.212274 645.95262,161.895134 645.472428,162.436276 C644.992237,162.977418 644.35199,163.247985 643.551671,163.247985 L643.517371,163.247985 Z M641.082125,184.468374 L641.082125,165.567153 L646.089815,165.567153 L646.089815,184.468374 L641.082125,184.468374 Z M661.593073,184.043193 C661.204347,184.249342 660.638415,184.42972 659.895261,184.584332 C659.152107,184.738944 658.346082,184.816249 657.477164,184.816249 C656.196652,184.816249 655.047639,184.597218 654.03009,184.159151 C653.012541,183.721084 652.137919,183.089761 651.406198,182.265164 C650.674477,181.440567 650.114261,180.435604 649.725535,179.250245 C649.336808,178.064887 649.142448,176.724936 649.142448,175.230354 C649.142448,173.813077 649.342524,172.498895 649.742684,171.287768 C650.142844,170.07664 650.725926,169.020141 651.491946,168.118238 C652.257966,167.216334 653.201186,166.507707 654.321633,165.992334 C655.442081,165.47696 656.722573,165.219277 658.163149,165.219277 C658.826271,165.219277 659.466517,165.283698 660.083907,165.412542 C660.701296,165.541385 661.238645,165.708879 661.695971,165.915028 L660.941388,170.128184 C660.666992,169.99934 660.324003,169.883383 659.91241,169.780308 C659.500817,169.677234 658.997767,169.625697 658.403244,169.625697 C657.099866,169.625697 656.076615,170.128178 655.333461,171.133156 C654.590307,172.138134 654.218736,173.426548 654.218736,174.998437 C654.218736,176.724937 654.61889,178.052004 655.419209,178.979675 C656.219529,179.907347 657.22563,180.371176 658.437543,180.371176 C659.466525,180.371176 660.335431,180.190798 661.044285,179.830037 L661.593073,184.043193 Z M672.63743,175.46227 C672.042907,175.46227 671.476975,175.513807 670.939617,175.616882 C670.40226,175.719956 669.927792,175.88745 669.516199,176.119368 C669.104606,176.351286 668.778766,176.660505 668.53867,177.047035 C668.298574,177.433565 668.178528,177.923163 668.178528,178.515842 C668.178528,179.31467 668.367172,179.900899 668.744466,180.274544 C669.121759,180.64819 669.573362,180.83501 670.099286,180.83501 C670.670943,180.83501 671.17971,180.64819 671.625602,180.274544 C672.071495,179.900899 672.385901,179.417744 672.568832,178.825064 C672.614564,178.696221 672.63743,178.548053 672.63743,178.380557 L672.63743,175.46227 Z M677.507923,179.984648 C677.507923,180.835014 677.525072,181.653157 677.559372,182.439101 C677.593671,183.225046 677.667985,183.901463 677.782317,184.468374 L673.289116,184.468374 L672.980422,182.574386 L672.911824,182.574386 C672.3859,183.321677 671.739937,183.88858 670.973917,184.27511 C670.207896,184.66164 669.35614,184.854902 668.418623,184.854902 C667.618303,184.854902 666.903743,184.700292 666.27492,184.391068 C665.646098,184.081844 665.114465,183.663109 664.680005,183.134852 C664.245546,182.606594 663.908273,181.994598 663.668178,181.298844 C663.428082,180.60309 663.308036,179.868694 663.308036,179.095634 C663.308036,177.858738 663.536695,176.789354 663.99402,175.887451 C664.451346,174.985548 665.091592,174.238268 665.914778,173.645589 C666.737964,173.052909 667.709766,172.614849 668.830214,172.331393 C669.950661,172.047938 671.173989,171.906212 672.500233,171.906212 L672.500233,171.59699 C672.500233,171.313535 672.460218,171.023642 672.380186,170.727302 C672.300154,170.430962 672.151525,170.166837 671.934295,169.934919 C671.717066,169.703002 671.425525,169.509739 671.059665,169.355127 C670.693804,169.200515 670.225053,169.123211 669.653396,169.123211 C668.853076,169.123211 668.075634,169.252052 667.321047,169.509739 C666.56646,169.767425 665.914781,170.076645 665.36599,170.437406 L664.47421,166.804042 C665.023,166.443281 665.817592,166.082525 666.858007,165.721764 C667.898423,165.361003 669.1389,165.180625 670.579475,165.180625 C671.951452,165.180625 673.083316,165.399655 673.975101,165.837722 C674.866885,166.27579 675.575729,166.86846 676.101654,167.615751 C676.627578,168.363043 676.993433,169.219838 677.19923,170.186163 C677.405026,171.152488 677.507923,172.176777 677.507923,173.259061 L677.507923,179.984648 Z M686.768719,160.503635 L686.768719,165.567153 L690.370139,165.567153 L690.370139,169.66435 L686.768719,169.66435 L686.768719,177.047035 C686.768719,178.206625 686.923064,179.024768 687.231759,179.501488 C687.540453,179.978209 688.037787,180.216565 688.723776,180.216565 C689.043904,180.216565 689.301145,180.203681 689.495509,180.177912 C689.689872,180.152144 689.912815,180.113491 690.164344,180.061954 L690.198643,184.352415 C689.878515,184.481258 689.438346,184.590774 688.878122,184.680964 C688.317898,184.771154 687.694802,184.816249 687.008813,184.816249 C686.208494,184.816249 685.488217,184.680965 684.847961,184.410394 C684.207705,184.139823 683.681789,183.772625 683.270196,183.308789 C682.790004,182.767648 682.429865,182.05902 682.18977,181.182885 C681.949674,180.306751 681.829628,179.172946 681.829628,177.781439 L681.829628,169.66435 L679.668775,169.66435 L679.668775,165.567153 L681.829628,165.567153 L681.829628,162.0884 L686.768719,160.503635 Z M695.515026,163.247985 C694.737573,163.247985 694.114476,162.977418 693.645717,162.436276 C693.176959,161.895134 692.942583,161.212274 692.942583,160.387677 C692.942583,159.537311 693.182675,158.841568 693.662867,158.300426 C694.143059,157.759284 694.783305,157.488717 695.583625,157.488717 C696.361078,157.488717 696.984175,157.759284 697.452933,158.300426 C697.921692,158.841568 698.167501,159.537311 698.190367,160.387677 C698.190367,161.212274 697.950275,161.895134 697.470083,162.436276 C696.989891,162.977418 696.349645,163.247985 695.549325,163.247985 L695.515026,163.247985 Z M693.07978,184.468374 L693.07978,165.567153 L698.087469,165.567153 L698.087469,184.468374 L693.07978,184.468374 Z M709.269023,180.757704 C709.726349,180.757704 710.132219,180.609537 710.486646,180.313197 C710.841074,180.016858 711.138331,179.604565 711.378427,179.076307 C711.618522,178.54805 711.80145,177.936053 711.927214,177.240299 C712.052979,176.544545 712.11586,175.797265 712.11586,174.998437 C712.11586,174.302683 712.064412,173.613381 711.961514,172.930512 C711.858615,172.247642 711.692837,171.635646 711.464175,171.094504 C711.235512,170.553362 710.938255,170.115301 710.572394,169.780308 C710.206534,169.445316 709.760648,169.277822 709.234724,169.277822 C708.685933,169.277822 708.217181,169.445316 707.828455,169.780308 C707.439728,170.115301 707.131038,170.553362 706.902375,171.094504 C706.673712,171.635646 706.507934,172.247642 706.405036,172.930512 C706.302138,173.613381 706.25069,174.302683 706.25069,174.998437 C706.25069,175.823034 706.313571,176.583198 706.439335,177.278952 C706.5651,177.974706 706.753744,178.580261 707.005273,179.095634 C707.256802,179.611007 707.565492,180.016858 707.931353,180.313197 C708.297213,180.609537 708.731666,180.757704 709.234724,180.757704 L709.269023,180.757704 Z M709.131826,184.854902 C707.965646,184.854902 706.896664,184.635871 705.924847,184.197804 C704.95303,183.759737 704.112707,183.121972 703.403852,182.28449 C702.694998,181.447009 702.140499,180.42272 701.740339,179.211592 C701.340179,178.000465 701.140102,176.634746 701.140102,175.114395 C701.140102,173.542507 701.345896,172.144578 701.757489,170.920566 C702.169082,169.696554 702.74073,168.659381 703.472451,167.809015 C704.204172,166.958649 705.073077,166.308 706.079193,165.857049 C707.08531,165.406097 708.182874,165.180625 709.371921,165.180625 C710.560967,165.180625 711.635666,165.412539 712.59605,165.876375 C713.556433,166.340211 714.379607,166.997302 715.065595,167.847668 C715.751584,168.698034 716.283217,169.722323 716.66051,170.920566 C717.037804,172.118809 717.226448,173.439433 717.226448,174.882478 C717.226448,176.686285 716.986355,178.219497 716.506164,179.482162 C716.025972,180.744826 715.402875,181.775558 714.636855,182.574386 C713.870835,183.373215 713.007645,183.953001 712.047262,184.313762 C711.086878,184.674524 710.126509,184.854902 709.166125,184.854902 L709.131826,184.854902 Z M720.244781,171.519684 C720.244781,170.360095 720.233348,169.297153 720.210482,168.330828 C720.187616,167.364503 720.153317,166.443287 720.107584,165.567153 L724.429289,165.567153 L724.669384,168.040932 L724.772282,168.040932 C724.955212,167.731708 725.195304,167.403163 725.492566,167.055286 C725.789827,166.707409 726.138533,166.398189 726.538693,166.127618 C726.938852,165.857047 727.401888,165.631575 727.927812,165.451194 C728.453736,165.270814 729.025385,165.180625 729.642774,165.180625 C731.334879,165.180625 732.683969,165.837716 733.690085,167.151918 C734.696201,168.46612 735.199252,170.411625 735.199252,172.988491 L735.199252,184.468374 L730.191562,184.468374 L730.191562,173.568283 C730.191562,172.485999 730.014351,171.584109 729.659924,170.862587 C729.305497,170.141064 728.693833,169.780308 727.824914,169.780308 C727.207525,169.780308 726.704474,169.986455 726.315748,170.398753 C725.927021,170.811052 725.641197,171.287765 725.458266,171.828907 C725.321069,172.215437 725.252471,172.730802 725.252471,173.375019 L725.252471,184.468374 L720.244781,184.468374 L720.244781,171.519684 Z" id="Special-Interest-Gro" fill="#A49D81"></path>
                </g>
            </g>
        </g>
    </g>
</svg>